<svg width="20" height="20" viewBox="0 0 20 20" fill="none" xmlns="http://www.w3.org/2000/svg">
<path d="M8.39202 17.0857C8.392 16.9635 8.3651 16.8428 8.31323 16.7321C8.26136 16.6215 8.18578 16.5236 8.09186 16.4454C7.99794 16.3672 7.88797 16.3106 7.76974 16.2796C7.65151 16.2487 7.52792 16.2441 7.40772 16.2662C6.31682 16.4664 4.93947 16.4965 4.57325 15.4679C4.25392 14.6712 3.72498 13.9758 3.04249 13.4554C2.9938 13.4289 2.94739 13.3984 2.90374 13.3642C2.84401 13.2067 2.73792 13.0709 2.59946 12.9749C2.461 12.8788 2.29668 12.827 2.12818 12.8263H2.12412C1.90378 12.8262 1.69239 12.9134 1.53621 13.0688C1.38003 13.2243 1.29178 13.4352 1.29078 13.6556C1.28752 14.3351 1.96662 14.7705 2.24212 14.9178C2.56699 15.2442 2.82808 15.6284 3.01197 16.0506C3.31552 16.9034 4.19768 18.1974 6.73349 18.0306C6.73432 18.0599 6.73512 18.0875 6.73552 18.1128L6.73918 18.3358C6.73918 18.5568 6.82698 18.7687 6.98326 18.925C7.13954 19.0813 7.3515 19.1691 7.57252 19.1691C7.79353 19.1691 8.00549 19.0813 8.16177 18.925C8.31805 18.7687 8.40585 18.5568 8.40585 18.3358L8.40178 18.0705C8.39772 17.9125 8.39202 17.6838 8.39202 17.0857ZM17.2812 4.4807C17.3076 4.37653 17.3337 4.26098 17.3565 4.13077C17.4912 3.20209 17.3737 2.25426 17.0163 1.3866C16.9712 1.27349 16.9019 1.17161 16.8133 1.0881C16.7246 1.0046 16.6188 0.941493 16.5032 0.903209C16.2065 0.803109 15.1112 0.606167 13.0165 1.94488C11.2752 1.53512 9.46268 1.53512 7.72146 1.94488C5.63527 0.625776 4.54558 0.804775 4.2518 0.899175C4.13335 0.935909 4.02463 0.998681 3.93359 1.08289C3.84255 1.1671 3.77151 1.27061 3.72567 1.38584C3.36093 2.27016 3.24471 3.23732 3.38957 4.18288C3.40992 4.28948 3.43189 4.38796 3.45468 4.47828C2.76433 5.39782 2.39661 6.51942 2.40854 7.6692C2.40629 7.92573 2.41811 8.18219 2.44394 8.43743C2.72227 12.2729 5.22227 13.4244 6.9642 13.8199C6.92799 13.9241 6.89503 14.0356 6.86573 14.1536C6.81352 14.368 6.84846 14.5944 6.9629 14.7831C7.07734 14.9717 7.26193 15.1074 7.47621 15.1601C7.69048 15.2129 7.91695 15.1786 8.10594 15.0646C8.29493 14.9507 8.43103 14.7665 8.48438 14.5523C8.53741 14.2747 8.67332 14.0196 8.8742 13.8207C8.99566 13.7144 9.08361 13.575 9.12733 13.4196C9.17105 13.2642 9.16867 13.0995 9.12047 12.9454C9.07228 12.7913 8.98034 12.6546 8.85585 12.5518C8.73137 12.449 8.57969 12.3846 8.41928 12.3665C5.54087 12.0377 4.29127 10.865 4.10328 8.28444C4.08246 8.08005 4.07309 7.87465 4.07521 7.66921C4.06184 6.84976 4.33257 6.05094 4.8414 5.40847C4.89253 5.34149 4.94698 5.27711 5.00457 5.21559C5.10659 5.10143 5.17519 4.96136 5.20283 4.81076C5.23046 4.66017 5.21607 4.50487 5.16123 4.36192C5.10501 4.21152 5.06172 4.05661 5.03184 3.89886C4.96395 3.45029 4.98622 2.99268 5.09734 2.55283C5.82162 2.75739 6.50327 3.09036 7.10984 3.53589C7.21015 3.6027 7.32365 3.64717 7.44265 3.66626C7.56165 3.68536 7.68336 3.67865 7.79954 3.64658C9.4838 3.18949 11.2595 3.18978 12.9436 3.64741C13.0604 3.67944 13.1827 3.68577 13.3022 3.66597C13.4217 3.64616 13.5355 3.60068 13.6357 3.53267C14.2395 3.08528 14.9182 2.74933 15.6401 2.54064C15.7507 2.96994 15.7755 3.41686 15.7129 3.85574C15.6828 4.02869 15.6356 4.19824 15.5722 4.36193C15.5173 4.50489 15.5029 4.66019 15.5306 4.81078C15.5582 4.96138 15.6268 5.10144 15.7288 5.21561C15.7931 5.28803 15.8574 5.36616 15.9152 5.4394C16.4204 6.071 16.6866 6.86063 16.6668 7.6692C16.6683 7.88554 16.6578 8.1018 16.6354 8.31698C16.4519 10.8634 15.1974 12.0369 12.3056 12.3665C12.1451 12.3847 11.9935 12.4492 11.869 12.5521C11.7445 12.655 11.6526 12.7918 11.6045 12.946C11.5563 13.1001 11.554 13.2649 11.5978 13.4204C11.6416 13.5758 11.7296 13.7152 11.8511 13.8215C12.0583 14.0257 12.1945 14.291 12.2397 14.5784C12.296 14.8015 12.3219 15.0311 12.3166 15.2612V17.2062C12.3084 17.7457 12.3084 18.1502 12.3084 18.3357C12.3084 18.5567 12.3962 18.7687 12.5525 18.925C12.7088 19.0812 12.9207 19.169 13.1418 19.169C13.3628 19.169 13.5747 19.0812 13.731 18.925C13.8873 18.7687 13.9751 18.5567 13.9751 18.3357C13.9751 18.155 13.9751 17.7587 13.9832 17.2192V15.2612C13.9899 14.8927 13.9465 14.525 13.8542 14.1682C13.8278 14.0511 13.7955 13.9354 13.7574 13.8216C15.0251 13.611 16.177 12.9573 17.0079 11.9771C17.8389 10.9968 18.295 9.75344 18.2952 8.46836C18.3226 8.20288 18.3354 7.93609 18.3334 7.6692C18.3519 6.51818 17.9811 5.39462 17.2812 4.4807Z" fill="white"/>
</svg>
