<svg width="24" height="24" viewBox="0 0 24 24" fill="none" xmlns="http://www.w3.org/2000/svg">
<g clip-path="url(#clip0_23_2)">
<path d="M22 3H2C1.46957 3 0.960859 3.21071 0.585786 3.58579C0.210714 3.96086 0 4.46957 0 5V19C0 19.5304 0.210714 20.0391 0.585786 20.4142C0.960859 20.7893 1.46957 21 2 21H22C22.5304 21 23.0391 20.7893 23.4142 20.4142C23.7893 20.0391 24 19.5304 24 19V5C24 4.46957 23.7893 3.96086 23.4142 3.58579C23.0391 3.21071 22.5304 3 22 3ZM12 11L3 4H21L12 11ZM3 8L11.7 14.9C11.7856 14.9626 11.8889 14.9963 11.995 14.9963C12.1011 14.9963 12.2044 14.9626 12.29 14.9L21 8V14.5V20H3V14.5V12V8Z" fill="white"/>
</g>
<defs>
<clipPath id="clip0_23_2">
<rect width="24" height="24" fill="white"/>
</clipPath>
</defs>
</svg>
