<svg width="19" height="18" viewBox="0 0 19 18" fill="none" xmlns="http://www.w3.org/2000/svg">
<g clip-path="url(#clip0_23_8)">
<path d="M0 2.09091C0 1.48483 0.212127 0.984835 0.636363 0.590908C1.0606 0.196963 1.61212 0 2.29091 0C2.95758 0 3.49696 0.193927 3.90908 0.581817C4.33332 0.981817 4.54545 1.50302 4.54545 2.14545C4.54545 2.72727 4.33939 3.2121 3.92727 3.59999C3.50303 3.99999 2.94545 4.19999 2.25454 4.19999H2.23636C1.56969 4.19999 1.03031 3.99999 0.618181 3.59999C0.206054 3.2 0 2.69696 0 2.09091ZM0.236363 18V5.85454H4.27272V18H0.236363ZM6.50908 18H10.5454V11.2182C10.5454 10.7939 10.5939 10.4666 10.6909 10.2363C10.8606 9.82422 11.1182 9.47573 11.4636 9.1909C11.8091 8.90604 12.2424 8.76362 12.7636 8.76362C14.1212 8.76362 14.8 9.67877 14.8 11.5091V18H18.8363V11.0363C18.8363 9.2424 18.4121 7.88181 17.5636 6.95453C16.7151 6.02726 15.5939 5.56363 14.2 5.56363C12.6363 5.56363 11.4182 6.23635 10.5454 7.58181V7.61817H10.5273L10.5454 7.58181V5.85454H6.50908C6.53332 6.24241 6.54544 7.44846 6.54544 9.47271C6.54544 11.4969 6.53332 14.3394 6.50908 18Z" fill="white"/>
</g>
<defs>
<clipPath id="clip0_23_8">
<rect width="18.8363" height="18" fill="white"/>
</clipPath>
</defs>
</svg>
